PathFileType	4	(X/Y/Z)	P:\Projects\LMB_grand_challenge_database\project_only\opensim\experimental_data\SixthCompetition/DM_ngait_og4_new.trc
DataRate	CameraRate	NumFrames	NumMarkers	Units	OrigDataRate	OrigDataStartFrame	OrigNumFrames
120	120	4	68	mm	120	140	374
Frame#	Time	Sternum			Neck			R_Shoulder			L_Shoulder			Xiphoid			Thoracic			R_Asis			L_Asis			R_Psis			L_Psis			Lumbar			R_Elbow			R_ElbowMedial			R_ShoulderAnterior			R_ShoulderPosterior			R_Wrist			R_Radius			R_Ulna			L_Elbow			L_ElbowMedial			L_ShoulderAnterior			L_ShoulderPosterior			L_Wrist			L_Ulna			L_Radius			L_Thigh_Superior			L_Thigh_Inferior			L_Thigh_Lateral			L_Knee_Lateral			L_Knee_Medial			L_Patella			L_Shank_Superior			L_Shank_Inferior			L_Shank_Lateral			L_Ankle_Lateral			L_Ankle_Medial			R_Thigh_Superior			R_Thigh_Inferior			R_Thigh_Lateral			R_Knee_Lateral			R_Knee_Medial			R_Patella			R_Shank_Superior			R_Shank_Inferior			R_Shank_Lateral			R_Ankle_Lateral			RankleMedial			R_Heel			R_Toe			R_Midfoot_Medial			R_Midfoot_Lateral			R_Hindfoot			R_Midfoot_Superior			R_ToeMedial			R_ToeLateral			L_Heel			L_Toe			L_Midfoot_Medial			L_Midfoot_Lateral			L_Hindfoot			L_Midfoot_Superior			L_ToeMedial			L_ToeLateral			Oglobal			Sacral			Xglobal			Yglobal			Zglobal			
		X1	Y1	Z1	X2	Y2	Z2	X3	Y3	Z3	X4	Y4	Z4	X5	Y5	Z5	X6	Y6	Z6	X7	Y7	Z7	X8	Y8	Z8	X9	Y9	Z9	X10	Y10	Z10	X11	Y11	Z11	X12	Y12	Z12	X13	Y13	Z13	X14	Y14	Z14	X15	Y15	Z15	X16	Y16	Z16	X17	Y17	Z17	X18	Y18	Z18	X19	Y19	Z19	X20	Y20	Z20	X21	Y21	Z21	X22	Y22	Z22	X23	Y23	Z23	X24	Y24	Z24	X25	Y25	Z25	X26	Y26	Z26	X27	Y27	Z27	X28	Y28	Z28	X29	Y29	Z29	X30	Y30	Z30	X31	Y31	Z31	X32	Y32	Z32	X33	Y33	Z33	X34	Y34	Z34	X35	Y35	Z35	X36	Y36	Z36	X37	Y37	Z37	X38	Y38	Z38	X39	Y39	Z39	X40	Y40	Z40	X41	Y41	Z41	X42	Y42	Z42	X43	Y43	Z43	X44	Y44	Z44	X45	Y45	Z45	X46	Y46	Z46	X47	Y47	Z47	X48	Y48	Z48	X49	Y49	Z49	X50	Y50	Z50	X51	Y51	Z51	X52	Y52	Z52	X53	Y53	Z53	X54	Y54	Z54	X55	Y55	Z55	X56	Y56	Z56	X57	Y57	Z57	X58	Y58	Z58	X59	Y59	Z59	X60	Y60	Z60	X61	Y61	Z61	X62	Y62	Z62	X63	Y63	Z63	X64	Y64	Z64	X65	Y65	Z65	X66	Y66	Z66	X67	Y67	Z67	X68	Y68	Z68	

141	3.391667	-157.706	1391.96	152.182	-326.852	1462.19	166.59	-212.337	1414.22	329.835	-257.106	1442.84	-14.2182	-132.48	1225.97	149.88	-414.363	1271.77	155.904	-215.553	998.605	285.96	-206.138	990.134	14.7919	-418.044	1023.41	175.705	-416.56	1021.77	97.5271	-416.236	1071.98	134.954	-217.904	1098.38	430.759	-0	0	0	-0	0	0	-0	0	0	-131.056	831.946	400.991	-141.587	841.766	357.804	-174.979	833.357	421.208	-215.921	1104.55	-107.158	-0	0	0	-0	0	0	-0	0	0	-107.4	861.553	-59.6003	-143.493	862.938	-92.3848	-133.508	875.136	-20.0525	-243.346	810.684	-22.4106	-164.49	599.0119999999999	-4.63419	-138.11	696.575	21.8483	-0	0	0	-0	0	0	-120.926	491.451	43.5299	-236.273	473.496	-7.92034	-448.443	312.549	6.84567	-313.2	354.248	63.549	-0	0	0	-0	0	0	-286.674	801.823	308.825	-245.064	590.553	267.697	-190.992	722.271	291.688	-0	0	0	-0	0	0	-158.097	511.354	198.108	-281.389	397.886	275.545	-294.371	191.124	259.107	-219.467	311.945	193.321	-0	0	0	-0	0	0	-385.224	62.8633	199.58	-85.76009999999999	51.8564	225.525	-160.093	30.1837	166.958	-180.608	28.5377	282.409	-290.08	27.7964	260.744	-221.313	118.999	216.283	-116.365	39.7296	179.782	-129.987	39.2549	270.067	-573.595	287.031	75.8784	-402.206	48.2911	24.0247	-457.487	93.3477	89.03830000000001	-482.146	112.991	-21.0171	-549.462	192.464	5.06543	-430.479	193.549	39.6995	-435.221	61.4396	71.8575	-445.948	71.8215	-20.9638	-0	0	0	-417.302	1022.59	136.616	-200	0	0	-0	0	200	-0	200	0	
142	3.4	-149.65	1393.1	152.111	-318.539	1463.43	167.514	-203.181	1415.84	330.059	-249.975	1443.8	-14.1286	-124.566	1227.03	149.772	-406.152	1272.85	157.359	-207.279	999.558	286.486	-198.842	991.2380000000001	15.3072	-410.116	1024.82	176.969	-408.936	1023.17	98.76909999999999	-408.368	1073.38	136.251	-207.069	1100.17	431.478	-0	0	0	-0	0	0	-0	0	0	-118.398	834.301	401.418	-128.102	844.457	358.401	-161.952	835.346	421.32	-214.934	1105.25	-108.36	-0	0	0	-0	0	0	-0	0	0	-109.503	860.811	-62.0535	-145.727	862.752	-94.8265	-135.727	874.044	-22.0821	-234.207	812.8390000000001	-21.3563	-151.607	602.287	-4.37735	-127.18	700.3049999999999	22.2328	-0	0	0	-0	0	0	-105.868	495.882	43.7905	-220.259	475.259	-7.31253	-429.012	309.019	7.59856	-295.86	354.591	65.083	-0	0	0	-0	0	0	-279.987	803.0650000000001	309.002	-241.624	591.009	267.96	-185.048	721.9930000000001	291.424	-0	0	0	-0	0	0	-154.715	510.471	198.294	-279.617	398.205	275.647	-293.715	191.383	259.443	-218.409	311.846	193.414	-0	0	0	-0	0	0	-385.139	63.1356	199.615	-85.6818	51.6855	225.506	-160.074	30.0934	166.902	-180.561	28.3752	282.357	-289.901	28.0012	260.653	-221.091	118.981	216.33	-116.212	39.5534	179.753	-130.019	39.2334	270.388	-553.67	280.195	75.9415	-375.317	46.5558	27.6797	-431.91	90.1919	91.47320000000001	-456.289	108.261	-18.914	-526.8680000000001	186.002	5.96695	-408.237	191.217	41.7336	-408.826	59.3369	75.208	-419.388	68.2954	-18.0531	-0	0	0	-409.526	1023.99	137.869	-200	0	0	-0	0	200	-0	200	0	
143	3.408333	-141.447	1394.13	152.058	-310.128	1464.54	168.38	-193.97	1417.37	330.218	-242.894	1444.58	-13.7232	-116.659	1227.98	149.83	-398.181	1274.1	158.821	-199.066	1000.3	286.961	-191.77	992.196	15.7796	-402.258	1026.18	178.248	-401.495	1024.54	100.009	-400.59	1074.74	137.641	-196.148	1101.91	432.031	-0	0	0	-0	0	0	-0	0	0	-105.462	836.707	401.92	-114.559	847.0069999999999	358.747	-148.626	837.222	421.667	-214.085	1105.85	-109.577	-0	0	0	-0	0	0	-0	0	0	-111.932	859.864	-64.7453	-148.22	862.395	-97.3836	-137.604	873.402	-24.5588	-225.973	815.171	-21.882	-139.136	605.578	-3.957	-115.123	704.654	22.3	-0	0	0	-0	0	0	-91.3741	500.498	44.1554	-204.558	476.825	-6.89846	-409.211	305.03	8.15822	-276.825	353.877	65.4588	-0	0	0	-0	0	0	-272.373	803.671	309.064	-238.349	591.444	268.558	-180.539	722.029	292.108	-0	0	0	-0	0	0	-151.897	510.019	198.563	-277.82	398.577	275.82	-293.455	192.042	259.668	-218.35	311.621	194.984	-0	0	0	-0	0	0	-385.04	63.4145	199.77	-85.5003	51.4979	225.48	-160.059	30.0724	166.781	-180.423	28.2786	282.256	-289.839	28.119	260.626	-220.872	119.011	216.359	-116.099	39.5673	179.718	-129.941	39.2058	270.431	-534.503	272.833	75.79000000000001	-346.748	44.9546	31.7735	-405.85	87.73350000000001	94.60980000000001	-430.231	103.373	-16.147	-502.883	178.624	7.38228	-384.918	188.464	43.4429	-380.993	57.2429	79.1737	-391.327	64.58369999999999	-14.584	-0	0	0	-401.876	1025.36	139.128	-200	0	0	-0	0	200	-0	200	0	
144	3.416667	-133.171	1394.93	151.853	-301.721	1465.56	169.179	-184.645	1418.57	330.289	-236.312	1445.41	-13.1492	-108.546	1228.85	150.029	-390.001	1275.01	160.248	-191.124	1001.63	287.665	-183.665	993.139	15.8643	-394.202	1027.22	178.689	-393.129	1025.8	100.597	-392.543	1075.91	137.815	-185.121	1103.53	432.394	-0	0	0	-0	0	0	-0	0	0	-92.2192	839.122	402.147	-100.716	849.88	359.315	-135.545	839.05	421.392	-213.42	1106.39	-110.572	-0	0	0	-0	0	0	-0	0	0	-114.228	858.924	-67.75830000000001	-150.83	861.915	-99.9006	-139.201	872.749	-27.3556	-219.067	817.542	-23.2075	-126.778	608.765	-3.40316	-104.011	708.467	22.5424	-0	0	0	-0	0	0	-77.4526	504.528	44.805	-188.872	478.248	-6.36778	-389.376	300.633	8.52425	-258.418	353.675	66.3813	-0	0	0	-0	0	0	-265.323	804.4	309.455	-234.607	591.831	268.747	-175.047	721.744	292.08	-0	0	0	-0	0	0	-149.457	509.208	198.856	-275.967	398.869	276.086	-293.042	192.487	259.864	-216.681	311.632	195.355	-0	0	0	-0	0	0	-384.851	63.7731	199.692	-85.2242	51.3513	225.311	-159.9	30.0165	166.922	-180.384	28.2375	282.377	-289.857	28.1951	260.679	-220.68	119.03	216.449	-115.964	39.4689	179.74	-129.891	39.0147	270.224	-514.888	264.207	75.0249	-316.832	43.9133	35.949	-377.641	85.869	97.9687	-401.974	98.3494	-13.199	-478.604	170.272	8.34229	-360.651	186.284	45.0106	-352.06	55.4878	82.7968	-361.234	60.8065	-11.0562	-0	0	0	-393.666	1026.51	139.643	-200	0	0	-0	0	200	-0	200	0	
